<?xml version="1.0" encoding="utf-8"?>
<!-- Generator: Adobe Illustrator 24.1.3, SVG Export Plug-In . SVG Version: 6.00 Build 0)  -->
<svg version="1.1" id="Layer_1" xmlns="http://www.w3.org/2000/svg" xmlns:xlink="http://www.w3.org/1999/xlink" x="0px" y="0px"
	 viewBox="0 0 758 758" style="enable-background:new 0 0 758 758;" xml:space="preserve">
<style type="text/css">
	.st0{fill:#FF4A4A;}
	.st1{fill:#FFD666;}
	.st2{fill:#29B6C9;}
	.st3{fill:#E6E6EA;}
</style>
<g>
	<path class="st0" d="M204.22,106.19c9.25-3.38,19.05-4.9,28.77-6.09c9.65,0.25,19.41-0.81,28.95,0.93
		c15.86,1.99,31.1,7.93,44.51,16.54c14.71,8.93,29.69,17.41,44.25,26.59c5.6,3.89,11.99,6.47,17.53,10.48
		c8.14,4.51,15.56,10.33,24.21,13.89c8.76,4.92,18.26,8.64,26.28,14.82c5.8,4.82,12.21,9.07,16.96,15.03
		c2.88,3.64,6.21,6.91,9.08,10.58l0.67-1.4c0.13,1.16-0.53,2.58,0.48,3.49c7.24,8.99,11.79,19.77,15.6,30.56
		c1.37,2.97,2.04,6.18,2.68,9.37c0.56,1.94,1,3.91,1.65,5.83c0.11,25.67,0.13,51.35-0.01,77.03c-26.1,0.14-52.22,0.1-78.32,0.02
		c1.06-5.33,0.73-10.81-0.62-16.05c-1.29-1.3-2.54-2.69-4.1-3.67c-5.19-0.18-10.33-0.91-15.48-1.58c-2.25-2.11-2.77-5.31-3.76-8.1
		c-2.37-8.45-5.64-16.63-9.38-24.55c-2.92-4.34-5.08-9.11-6.16-14.23c2.15-4.58,6.38-7.46,9.57-11.2c1.41-3.56,0.38-8.04-2.24-10.85
		c-4.5-4.18-8.67-8.7-13.32-12.71c-3.37-2.7-5.43-6.89-9.41-8.84c-2.22-0.33-4.49-0.26-6.71-0.06c-3.33,3.27-6.38,6.87-9.95,9.89
		c-3.15,0.23-5.69-2.08-8.38-3.37c-8.19-4.21-16.86-7.41-25.52-10.5c-5.05-1.72-10.47-2.73-14.98-5.73
		c-0.04-4.48,0.2-8.97-0.08-13.44c-1.3-3.43-3.71-7.41-7.81-7.59c-9.36-0.82-18.81-0.15-28.2-0.38c-3.22-0.37-6.45,1.19-7.81,4.19
		c-3.61,4.75-1.93,10.92-2.23,16.41c-2.95,2.03-5.97,4.06-9.48,4.96c-9.33,2.88-18.53,6.26-27.07,11.05
		c-3.35,2.09-7.12,3.3-10.79,4.68c-3.59-2.59-6.39-6.06-9.57-9.11c-3.14-3.1-8.6-2.87-11.63,0.28
		c-6.82,6.53-13.37,13.34-20.12,19.95c-1.96,1.65-2.52,4.21-3.4,6.49c1.75,6.09,7.78,9.27,10.92,14.43
		c0.18,5.16-3.35,9.58-5.35,14.15c-4.84,8.57-7.69,18.02-10.75,27.33c-0.86,2.89-2.6,5.93-5.54,7.07c-4.62,0.66-9.53-0.74-14,0.85
		c-6.95,4.39-5.04,13.43-5.26,20.35c0.45,6.35-1.67,13.75,3.01,18.99c5.1,4.45,12.17,2.84,18.33,3.13c2.01,2.8,3.65,5.9,4.42,9.29
		c1.8,7.86,5.33,15.15,8.52,22.51c2.91,4.91,6.83,9.71,6.91,15.71c-4.41,4.28-9.34,8.35-11.42,14.36c2.3,7.5,9.58,11.39,13.77,17.63
		c3.81,4.21,7.73,8.55,12.77,11.29c2.24,0.35,4.53,0.16,6.8,0.2c2.79-2.97,5.35-6.18,8.55-8.71c3.38-2.65,7.94-0.9,11.29,0.91
		c7.55,4.54,15.65,8.16,24.07,10.75c5.06,1.79,10.4,2.97,14.98,5.89c0.39,5.74-1.25,12.07,1.96,17.26c1.53,1.66,3.75,2.83,6.03,2.88
		c4.98,0.11,9.96-0.08,14.93,0.09c0.14,30.22,0.13,60.45,0.01,90.68c-6.91-0.09-13.93,0.72-20.74-0.79
		c-16.72-2.42-32.43-9.48-46.62-18.46c-15.71-8.37-30.65-18.08-46.13-26.87c-10.69-6.7-21.79-12.7-32.38-19.56
		c-14.84-9.39-31.1-16.96-43.82-29.33c-8.7-7.43-15.67-16.77-20.87-26.94c-5.81-11.22-10.78-23.21-12.17-35.86
		c-0.02-50.37-0.01-100.74-0.01-151.11c1.05-8.72,4.26-17.02,7.68-25.06c3.11-8.32,8.04-15.77,12.88-23.17
		c5.71-6.94,12.02-13.42,18.8-19.34c8.09-7.31,18.02-12.03,27.19-17.78c20.4-10.97,39.86-23.56,60.04-34.92
		c8.96-5.76,18.27-10.95,27.32-16.57C184.15,115.08,193.81,109.67,204.22,106.19z"/>
	<g>
		<path class="st0" d="M234.91,227.99c5.14-2.68,11.43-2.5,16.83-0.69c5.6,2.19,10.4,7.65,10.37,13.86
			c0.15,0.28,0.44,0.85,0.59,1.13c-1,5.03-1.98,10.21-4.6,14.7c-1.35,2.19-2.73,4.37-3.99,6.62c5.23,0.95,10.68-0.25,15.78,1.58
			c1.95,1.78,4.15,3.85,4.07,6.73c0.09,3.41,0.66,6.96-0.59,10.24c-1.2,3.46-2.61,6.88-3.23,10.51
			c-4.06,10.3-5.62,22.82-15.15,29.84c-2.02,1.9,2.9,1.5,3.82,1.65c3.52,2.71,4.85,7.86,3.36,11.99c-0.09,0.59-0.28,1.76-0.37,2.35
			c-0.3,0.61-0.89,1.84-1.19,2.45c-0.99,0.21-2.97,0.64-3.96,0.85c3.67,0.89,5.37,4.31,7.35,7.14c2.06,3.22,3.42,6.88,3.36,10.76
			c-4.43,0.78-8.94,0.93-13.38,0.21c-2.64-2.92-3.84-6.67-5.16-10.29c1.06-2.12,2.41-4.08,4.11-5.75c0.88-0.24,2.64-0.71,3.52-0.95
			c-1.15-0.22-2.31-0.44-3.47-0.49c-3.82,2.42-5.1,7.29-9.05,9.57c-2.73-2.35-4.4-5.59-6.55-8.42c-0.99-1.82-3.21-0.85-4.82-0.87
			c1.52,0.77,3.06,1.53,4.62,2.26c3.29,4.69,0.37,10.54-2.1,14.96c-4.23,0.58-8.58,0.83-12.77-0.12c-1.96-0.8-1.32-3.11-0.59-4.56
			c2.45-5.02,4.89-10.69,10.17-13.33c-1.75-0.7-4.03-1-4.69-3.07c-1.82-4.24-1.98-9.98,1.49-13.45c1.71-1.25,3.98-1.24,5.93-1.86
			c-4.06-2.69-7.5-6.3-9.4-10.85c-2.2-5.55-4.35-11.15-6.04-16.88c-2.08-8.53-3.11-17.27-4.22-25.96c-0.17-2.03,1.94-3.15,3.06-4.54
			c1.27-0.35,2.54-0.72,3.8-1.16c4.64-0.07,9.28-0.03,13.92-0.09c-5.2-5.01-8.21-11.97-9.58-18.97
			C224.95,238.18,229.19,231.51,234.91,227.99z M238.42,236.29c-2.71,1.41-4.46,4.04-6.54,6.18c8.25,1.23,16.65,0.37,24.97,0.55
			C253.94,236.18,245.05,233.68,238.42,236.29z"/>
	</g>
	<path class="st0" d="M207.14,269.9c2.24,0.15,4.47,0.39,6.67,0.84c0.28,3.79,0.95,7.53,1.3,11.31c0.37,3.92,2.21,7.66,1.8,11.65
		c-2.89,0.21-6.23,0.91-8.73-0.97c-2.17-1.64-3.06-4.33-4.58-6.49C202.43,280.6,202.98,274.24,207.14,269.9z"/>
	<path class="st0" d="M275.86,270.03c2.67-0.15,5.29,0.26,7.73,1.38c1.71,4.66,1.47,9.66,1.24,14.53c-0.48,2.19-1.28,4.42-2.69,6.19
		c-2.84,2.5-6.82,1.69-10.27,1.76c-0.24-5.36,3.12-10,3.88-15.21C276.2,275.82,275.81,272.91,275.86,270.03z"/>
	<path class="st0" d="M287.1,284.77c9.66,5.27,18.35,12.52,24.36,21.81c2.04,3.66,2.14,7.94,2.98,11.94
		c1.27,0.83,2.95,0.73,4.37,0.32c-0.13-0.49-0.37-1.46-0.49-1.95c-0.12-1.19-0.22-2.38-0.3-3.57c1.17-1.17,2.32-2.34,3.47-3.52
		c2.28,0.07,3.68,1.29,3.71,3.62c-1.82,2.06-4.09,3.85-5.3,6.36c1,1.42,1.1,3.99,3.11,4.39c0.93-0.49,1.74-1.17,2.42-2.04
		c1.85-0.04,3.7-0.05,5.56-0.05c0.63,0.64,1.26,1.28,1.9,1.93c0,0.71,0,2.12,0.01,2.83c-0.94,0.82-1.88,1.63-2.82,2.45
		c-0.5-0.35-1.5-1.04-2-1.38c-1.13,0.01-2.26,0.03-3.38,0.06c-0.37-0.57-1.13-1.72-1.51-2.29l-0.69-0.33
		c-0.62,0.98-1.86,2.96-2.47,3.94c1.25,0.45,2.54,0.77,3.86,1.02c1.36,1.63,2.73,3.25,4.13,4.86c0.06,1.98,0.03,5.67-2.99,4.72
		c-2.58-1.95-5.81-4.83-5.05-8.42c-2.32,0.57-4.7,0.49-7.06,0.47c-2.71-3.3-2.33-8.09-0.23-11.6c-5.37,2.13-12.37,2.94-17.07-1.1
		c-7.75-6.11-12-15.55-13.71-25.08C284.29,291.43,285.69,288.06,287.1,284.77z"/>
	<path class="st0" d="M184.35,297.26c5.44-4.34,10.58-9.25,17.01-12.14c2.1,3.1,3.9,6.39,5.64,9.72c-2.02,6.82-3.9,13.94-8.63,19.47
		c-2.64,4.02-6.87,6.41-11,8.63c-3.88,0.22-8.01,0.17-10.94-2.79c1.88,3.77,1.36,7.79-0.44,11.45c-0.66,0.34-2,1.01-2.67,1.35
		c-2.15-1.18-4.41-2.38-5.91-4.39c-0.47-2.1-0.76-4.3-0.58-6.45c1.25-2.67,4.49-3.41,6.93-4.63
		C173.98,309.52,178.19,302.15,184.35,297.26z"/>
	<path class="st0" d="M165.09,308.64c2.67,2.02,4.85,4.59,6.28,7.63c-1.16,0.96-2.36,1.88-3.56,2.8c-1.56-2.04-3.76-3.72-4.68-6.17
		C162.57,311.17,164.33,309.96,165.09,308.64z"/>
	<path class="st0" d="M155.9,323c2.43-0.7,4.94-0.98,7.46-0.98c0.59,0.97,1.17,1.95,1.77,2.93c-0.48,0.92-0.95,1.84-1.41,2.76
		c-1.95,0.3-3.88,0.69-5.78,1.2C155.46,327.74,155.34,325.4,155.9,323z"/>
	<path class="st0" d="M161.76,333.89c1.56-1.8,3.45-5.02,6.18-3.16c-0.03,1.28-0.05,2.58-0.07,3.88c-1.57,1.77-3.02,3.64-4.35,5.61
		c-1.02-0.46-2.47-0.46-2.93-1.67C159.14,336.94,160.82,335.23,161.76,333.89z"/>
	<path class="st0" d="M170.04,343.96c0.37-3.49-1.01-7.65,1.84-10.39c1.02,0.86,2.02,1.73,3.03,2.6c-0.35,3.09,1.15,7.24-1.91,9.33
		C171.83,345.4,170.96,344.57,170.04,343.96z"/>
	<path class="st0" d="M313.37,336.45c0.83-1.68,2.75-2.17,4.34-2.85c1.72,3.37,1.31,7.24,0.87,10.86c-0.72,0.51-1.45,1.03-2.17,1.55
		c-1.12-0.98-2.23-1.95-3.33-2.94C313.13,340.87,312.9,338.62,313.37,336.45z"/>
	<path class="st0" d="M252.06,378.42c0.34-5.47-1.36-11.98,3.15-16.21c2.71-1.32,5.96-0.34,8.87-0.34c1.17,0.6,2.37,1.17,3.58,1.71
		c4.47,5.49,1.16,12.63,1.17,18.89c-0.19,0.35-0.58,1.07-0.77,1.42c-0.34,1.62,0.35,3.76-1.18,4.89c-3.74,0.34-7.63-0.34-11.18,1.19
		c-0.35-0.23-1.07-0.71-1.43-0.94c-0.95-2.96-1.35-6.03-1.25-9.13C252.78,379.53,252.3,378.79,252.06,378.42z"/>
	<path class="st0" d="M219.13,365.81c2.04-1.57,3.97-3.51,6.54-4.16c2.61-0.06,5.24,0,7.83,0.36c2.07,1.6,2.36,4.47,3.4,6.74
		c0,3.2-0.01,6.41,0.03,9.62c-0.2,0.37-0.62,1.12-0.83,1.5c-0.64,3.52-1.17,7.09-2.29,10.51c-1.52-0.68-3.02-1.41-4.5-2.18
		c-2.7,0.12-5.32,0.75-7.9,1.51c-0.54-3.93-1.58-7.8-1.39-11.8c-0.24-0.38-0.72-1.13-0.96-1.51
		C219.1,372.87,219.09,369.34,219.13,365.81z"/>
	<path class="st0" d="M255.56,391.44c3.82,0.45,7.66,0.77,11.51,0.66c0.41-0.28,1.24-0.85,1.65-1.13c2.55,0.88,5.36,1.12,7.65,2.66
		c3.59,2.06,5.91,5.63,7.78,9.22c-0.36,1.32,0.01,4.03-2.01,4c-8.39,0.16-16.79,0.01-25.18,0.07c-1.7,0.16-3.25-0.51-4.76-1.16
		c-0.07-2.04-0.11-4.08-0.14-6.11c0.2-0.38,0.6-1.13,0.8-1.5C252.87,395.61,254.03,393.38,255.56,391.44z"/>
	<path class="st0" d="M210.63,394.73c2.26-2.16,5.33-2.86,8.26-3.59c4.72,1.34,9.62,0.45,14.43,0.34c2.28,3.66,3.28,7.88,3.79,12.12
		c-1.14,1.09-2.27,2.19-3.39,3.3c-9.6,0.01-19.2,0.04-28.8-0.01C202.1,401.79,207.02,397.59,210.63,394.73z"/>
</g>
<g>
	<g>
		<path class="st1" d="M540.57,210.54c7.73-3.11,15.84-6.41,24.36-5.39c2.09,3.05,4.56,5.91,5.86,9.43c1.94,1.86,3.5,4.09,5.49,5.89
			c4.81,1.22,9.85,0.4,14.76,0.63c8.42-0.23,16.9,0.52,25.29-0.49c2.18-4.92,6.35-8.37,10.09-12.06c2.05-1.79,4.82-2.43,7.44-2.86
			c5.5,0.35,11.22,0.63,16.24,3.16c4.25,1.91,7.7,5.14,11.79,7.33c5.67,2.95,11.15,6.64,15.22,11.62c2.7,3.16,1.72,7.57,1.71,11.37
			c-1.93,3.76-4.76,7.11-5.79,11.31c4.25,7.22,8.99,14.18,12.67,21.71c2.81,5.07,6.63,9.58,10.96,13.42
			c5.28,0.41,10.65,0.14,15.86,0.99c6.37,1.51,6.6,9.1,7.76,14.31c0.45,9.35,0.04,18.74,0.21,28.11
			c-0.04,5.59-1.47,11.78-5.91,15.56c-4.06,0.92-8.45-0.34-12.52,0.87c-4.02,1.41-7.65,4.02-10.14,7.5
			c-2.7,10.87-9.67,19.93-16.62,28.47c-0.85,5.6,2.22,10.61,5.26,15.01c0.8,3.4,0.15,7.05,0.34,10.54
			c-3.13,3.91-6.84,7.35-11.26,9.75c-8.31,6.36-18.56,9.31-27.38,14.77c-0.17,0.33-0.5,0.99-0.67,1.31
			c-0.64-1.28-1.18-2.62-1.79-3.9c-3.01-0.24-6.02-0.45-9.02-0.65c-0.8-1.14-1.59-2.26-2.38-3.38c-2.29-3.01-5.01-5.7-7.69-8.35
			c-5.8-1.17-11.77-0.4-17.64-0.62c-8.07,0.21-16.19-0.47-24.22,0.45c-3.24,2.68-5.93,5.96-7.5,9.89c-0.87,1.81-1.76,4.65-4.21,4.6
			c-5.22,0.11-10.57,0.5-15.62-1.14c-13.15-4.14-24.43-12.35-35.42-20.4c0-3.69-0.03-7.38,0.05-11.06c1.68-3.07,3.21-6.3,6.02-8.54
			c0.04-3.5-0.25-7.35-2.98-9.88c-5.09-5.22-9-11.4-11.99-18.03c-2.85-4.18-4.49-9.37-8.82-12.34c-5.06-0.69-10.14-0.98-15.23-1.1
			c-2.95-0.63-6.44-2.1-6.92-5.49c-0.44-4.58,0.25-9.21-0.41-13.78c-1.11-5.66-0.77-11.48-0.6-17.21
			c1.34-5.92,0.75-12.01,0.89-18.02c1.17-1.23,2.33-2.47,3.44-3.76c5.51-0.09,11.06,0.35,16.53-0.51c2.72-1.9,6.61-2.94,7.78-6.41
			c2.84-7.47,6.04-14.9,10.91-21.3c2.53-3.84,6.48-7.46,5.34-12.54c-1.72-3.24-3.51-6.47-5.97-9.23c0.15-3.32-0.73-6.71,0.01-9.99
			c1.32-2.24,3.39-3.94,5.15-5.84C525.42,218.36,533.29,214.77,540.57,210.54z M590.09,261.25c-17.07,2.6-32.61,13.59-40.71,28.83
			c-6.9,12.69-9.08,28.14-4.81,42.04c3.83,14.22,13.66,26.67,26.45,33.93c11.22,6.4,24.71,8.94,37.45,6.61
			c15.18-2.49,29.14-11.57,37.57-24.43c7.86-11.83,11.18-26.72,8.61-40.73c-2.43-14.74-11.06-28.36-23.37-36.83
			C619.44,262.42,604.34,258.79,590.09,261.25z"/>
	</g>
	<path class="st1" d="M578.83,286.64c3-1.03,6.04-2.48,9.31-1.98c5.94,1.25,10.47,5.96,13.1,11.23c0.54,2.94,0.23,6.06-1.92,8.31
		c1.77,1.8,3.57,3.58,5.37,5.36c3.7-4.69,8.55-8.33,12.34-12.93c1.86-4.73,6.15-7.75,9.6-11.27c2.96-0.74,4.51,3.45,6.73,4.94
		c-3.22,3.83-6.58,7.84-11.16,10.07c-5.16,3.65-8.59,9.36-14.03,12.67c4.22,4.74,9.74,8.07,13.85,12.93
		c3.63,4.4,7.97,8.11,11.8,12.32c2.12,2.36,1.58,5.65,0.86,8.46c-2.06,1.37-4.04,3.49-6.73,3.2c-3.68,0.08-6.02-3.36-8.01-5.97
		c-4.55-6.79-11.63-11.23-16.78-17.48c-1.11-1.55-3.63-1.88-4.82-0.25c-2.47,2.05-1.64,5.94-4.23,7.87
		c-4.98,4.67-9.65,9.66-14.56,14.39c-1.56,1.88-4.51,1.86-6.35,0.44c-2.22-1.52-3.72-3.79-5.54-5.72c-0.74-3.51,2.05-6.03,4.47-8.03
		c4.42-3.58,8.34-7.72,12.15-11.94c1.26-1.65,3.6-1.47,5.18-2.68c1.5-1.02,2.93-2.14,4.42-3.19c-3.17-2.29-7.21-2.71-10.76-1.02
		c-8.11-0.96-14.04-9.79-12.15-17.67c4.11,0.6,6.94,4.45,11,4.9c4.37-0.71,5.05-5.29,4.77-8.96
		C584.27,291.62,578.55,291.41,578.83,286.64z"/>
</g>
<g>
	<g>
		<path class="st2" d="M377.99,351.43c6.08-0.54,12.12-2,18.27-1.26c4.06,0.04,7.1,3.4,8.85,6.75c2.4,6.41,1.6,14.23,6.37,19.62
			c2.84,1.93,6.47,1.29,9.67,2.07c8.08,0.87,16.03,2.52,23.92,4.43c6.35-1.8,9.11-8.59,11.75-14.01c1.22-3.01,4.16-4.73,7.06-5.81
			c5.92-1.26,11.59,1.42,16.68,4.15c8.81,5.31,17.88,10.51,25.26,17.77c3.02,2.56,2.37,7.05,1.71,10.48
			c-3.24,5.37-7.08,10.37-10.6,15.57c0,1.48,0.01,2.96,0.03,4.45c2.98,3.88,6.15,7.61,8.89,11.66c1.7,2.54,2.73,5.5,4.78,7.8
			c2.52,2.68,4.98,5.4,7.58,8c8.48-0.51,16.92-1.69,25.47-1.59c1.98,1.65,4.18,3.26,5.17,5.75c3.47,7.85,6.15,16.12,7.5,24.61
			c-0.42,5.08,1.21,10.11,0.59,15.25c-1.53,2.68-3.53,5.24-6.53,6.32c-5.57,1.72-11.39,2.43-16.98,4.04
			c-5.53,2.28-5.73,9.26-5.31,14.35c-0.25,0.26-0.76,0.8-1.01,1.07c-0.37,6.47-2.5,12.68-4.16,18.9
			c2.54,7.79,11.58,9.19,16.84,14.44c3.7,2.89,5.24,8.35,3.28,12.68c-4.47,12.33-12.19,23.44-21.69,32.45
			c-2.75,2.94-7.34,3.3-10.93,1.86c-5.28-2.81-10.08-6.51-15.52-9.02c-3.63-1.32-7.1,0.53-9.62,3.05
			c-5.38,4.42-11.11,8.42-17.23,11.74c-3.31,1.54-6.33,4.03-6.97,7.82c1.29,4.99,2.04,10.1,3.36,15.08
			c1.25,4.04-0.53,9.12-4.45,11.02c-11.91,6.46-25.53,9.78-39.08,9.57c-4.19,0.03-8.32-2.39-10.38-6.02
			c-2.2-5.76-2.59-12.17-5.3-17.74c-2.4-4.48-7.93-4.16-12.26-4.7c-7.82-0.51-15.25-3.27-22.91-4.51c-2.22,1.58-4.75,2.96-6.12,5.42
			c-2.36,3.89-5.14,7.47-7.92,11.06c-2.02,2.79-5.79,3.92-9.11,3.41c-7.61-1.48-14.19-5.76-20.74-9.65
			c-6.94-4.47-12.78-10.34-19.21-15.46c0.19-2.12-0.33-4.46,0.87-6.35c3.05-5.56,6.64-10.8,9.55-16.42
			c1.21-2.09-0.28-4.39-0.83-6.42c-2.23-4.19-6.02-7.29-8.44-11.35c-2.23-3.71-4.81-7.17-7.16-10.79c-1.61-2.24-4.05-4.55-7.06-3.98
			c-6.07,0.9-11.92,2.94-17.97,3.93c-2.84-0.13-5.22-1.85-7.55-3.28c-4.52-6.46-6.84-14.15-8.63-21.73
			c-0.83-2.87-0.43-5.95-1.56-8.73c-0.28-4.77-0.1-9.56-0.15-14.33c4.4-8.94,15.68-7.15,23.55-10.34c3.16-0.89,4.67-4,5.34-6.96
			c-1.27-8.77,2.51-17.09,4.08-25.54c0.98-3.75-2.29-6.21-4.59-8.52c-2.03-1.76-4.51-2.9-6.94-3.99c-3.31-2.15-6.4-4.69-8.57-8.01
			c0.15-2.38-0.12-4.83,0.58-7.13c2.3-6.79,5.27-13.37,9.27-19.33c4.34-4.44,7.55-9.89,12.12-14.11c3.11-2.84,7.56-1.65,11.36-1.85
			c2.9,1.71,6.41,2.33,8.91,4.73c2.52,2.32,5.56,4.29,9.02,4.77c4.59-0.02,7.69-3.75,10.76-6.63c4.64-3.99,10.04-6.97,15.58-9.51
			c1.96-0.94,3.37-2.6,4.7-4.26c-0.21-4.86-1.54-9.56-2.35-14.33c-0.22-0.36-0.65-1.08-0.86-1.44c-0.35-4.19,0.33-8.3,2.24-12.05
			C360.39,356.22,369.22,353.78,377.99,351.43z M394.58,429.66c-25.61,4.41-47.36,25.14-53.17,50.44
			c-4.47,17.68-1.12,37.16,8.82,52.43c9.3,14.4,24.18,25.23,40.95,29.07c15.8,4.06,32.96,1.64,47.36-5.87
			c15.03-7.96,27.02-21.76,32.34-37.97c4.08-12.05,4.92-25.27,1.72-37.63c-3.84-16.62-14.49-31.37-28.72-40.68
			C429.53,430.05,411.45,426.33,394.58,429.66z"/>
	</g>
	<g>
		<path class="st2" d="M380.33,449.33c2.92-1.83,6.47-1.29,9.73-1.35c5.75-0.33,10.72,4.28,12.48,9.5
			c2.56,4.83,0.71,10.66-2.14,14.94c-1.63,2.95-6.51,3.57-6.39,7.51c0.07,7.04-0.56,14.15,0.52,21.13c1.78-0.69,3.56-1.44,5.08-2.63
			c7.29-2.96,14.98-4.75,22.28-7.7c2.5-1.33,4.77-3.12,6.79-5.11c2.23-2.36,2.38-5.78,3.06-8.79c-3.67-1.46-5.42-5.11-7.45-8.21
			c-2.29-4.27-1.41-9.53,0.8-13.63c1.53-2.13,3.59-3.79,5.36-5.71c4.5-1.6,9.51-1.71,14.16-0.87c5.2,3.12,9.9,8.22,10.39,14.54
			c0.14,6.08-4.36,11.33-9.6,13.88c-1.45,5.1-1.77,10.96-5.57,15.01c-3.97,4.11-8.02,8.42-13.41,10.65
			c-7.28,3.55-15.84,3.66-22.66,8.28c-5.03,2.53-8.88,7.42-9.21,13.17c3.81,2.36,6.12,6.3,8.38,10.04
			c-0.02,2.91,0.23,5.84-0.14,8.74c-1.8,4.61-5.6,7.98-9.95,10.13c-7.61,1.97-16.26-1.54-19.79-8.72c0.09-4.03-0.27-8.09,0.18-12.1
			c2.1-3.1,5.09-5.43,7.8-7.95c0.02-15.77,0.01-31.54,0.01-47.31c-2.82-1.69-5.93-3.5-6.9-6.89
			C371.54,462.86,372.8,452.78,380.33,449.33z M385.31,454.88c-1.94,1.87-4.48,3.52-5.2,6.28c-0.64,3.6,0.89,8.13,4.83,9.05
			c6.45,3.33,13.82-5.41,10.31-11.47C393.55,455,388.82,454.93,385.31,454.88z M430.76,460.82c-1.48,2.94,0.87,5.79,2.03,8.41
			c2.49,1.26,5.54,2.38,8.26,1.05c2.62-0.59,4.25-2.85,6.12-4.56c0.2-3.9-1.26-8.18-5.09-9.82
			C437.84,453.23,431.88,456.11,430.76,460.82z M380.01,540.19c0.74,7.16,12.02,7.94,14.85,1.8c2.21-2.9,0.67-6.43-0.33-9.46
			c-2.35-0.98-4.77-2.01-7.34-2.11C382.48,530.71,378.76,535.54,380.01,540.19z"/>
	</g>
</g>
<g>
	<g>
		<path class="st3" d="M628.4,424.87c0.79,1.12,1.58,2.24,2.38,3.38c3,0.2,6.01,0.41,9.02,0.65c0.61,1.28,1.15,2.62,1.79,3.9
			c0.17,0.34,0.52,1.03,0.69,1.37c-0.01,1.46,0.31,2.85,0.97,4.15c0.07,0.99,0.15,2,0.23,3.01c1.15,2.11,2.69,3.83,5.33,3.59
			c5.42,1.06,10.86,2.13,16.15,3.8c4.78-2.65,6.11-8.42,9.81-12.14c1.99,0.02,3.99,0.03,6,0.11c1.1,0.47,2.23,0.87,3.39,1.22
			c0.39,0.34,1.17,1.02,1.56,1.36c6.73,2.56,11.75,7.83,16.7,12.84c-0.04,1.59,0.09,3.2-0.16,4.79c-2.15,3.83-4.87,7.31-6.92,11.21
			c3.31,4.61,7.31,8.81,9.38,14.2c1.06,1.09,2.12,2.2,3.19,3.31c1.66-0.03,3.32-0.06,5-0.13c2.12-1.16,4.77-0.52,6.75-2.05
			c2.29,0.77,4.61,1.87,6.05,3.92c2.26,3.87,3.02,8.35,4.57,12.52c0.12,5,0.31,10.03,0,15.03c-1.01,1.21-2.14,2.3-3.2,3.45
			c-1.03,0.04-2.04,0.1-3.05,0.17c-1.9,1-4.08,0.89-6.15,1.23c-1.62,0.74-3.11,1.71-4.45,2.87c-0.01,2.01-0.03,4.01-0.12,6.02
			c-1.02,1.51-0.88,3.36-1.13,5.08c-0.51,1.31-0.84,2.68-1.23,4.04c-0.42,1.46-0.55,2.98-0.7,4.5c3.4,2.5,6.89,4.92,10.57,7.01
			c0.5,0.97,1.02,1.94,1.57,2.9c0,1.55,0,3.1-0.01,4.66c-1.94,3.31-3.34,6.93-5.56,10.07c-2.54,4.41-6.1,8.03-9.74,11.53
			c-1.99-0.11-4.05,0.24-5.96-0.39c-2.03-1.29-3.68-3.07-5.56-4.54c-1.88-1.54-4.48-1.04-6.7-1.41c-2.46,1.82-4.61,4.05-7.32,5.51
			c-3.1,2.04-6.76,3.47-9.16,6.39c-0.06,5.12,2,10.01,2.17,15.15c-3.88,4.09-9.51,5.39-14.74,6.82c-5.71,1.68-11.71,0.99-17.52,0.28
			c-1.92-5.19-2.59-10.76-4.8-15.85c-6.16-1.74-12.68-1.81-18.72-4c-1.47-0.76-2.77,0.42-4.02,1.02c-2.47,3.81-5.41,7.3-7.76,11.19
			c-9.74-1.73-19.1-6.56-25.62-14.09c-1.48-1.6-1.95-3.7-1.98-5.81l0.79-0.12c1.63-3.83,4.1-7.2,6.52-10.56
			c-0.17-0.99-0.32-1.95-0.5-2.92c-1.43-1.65-2.86-3.31-4.05-5.13c-0.68-1.01-1.35-2.02-1.99-3.02c-1.86-3.09-3.65-6.22-6.2-8.79
			c-1.1,0.29-2.19,0.59-3.23,1.02c-1.73,0.25-3.59,0.1-5.1,1.13c-1.83,0.07-3.65,0.09-5.47,0.09c-1.01-0.57-2.02-1.11-3.04-1.62
			c-1.08-2.3-2.15-4.6-3.32-6.84c-0.22-1.4-0.39-2.78-0.7-4.15c-0.46-1.35-0.86-2.73-1.42-4.03c0.1-4.78-1.13-9.66,0.58-14.28
			c3.49-3.27,8.42-2.95,12.53-4.86c0.66-0.01,1.97-0.03,2.63-0.05c1.16-2.26,1.24-4.78,1.35-7.26c0.91-1.55,0.78-3.4,1.02-5.11
			c0.66-1.72,1.06-3.54,1.72-5.26c0.06-1.74,0.08-3.48,0.11-5.2c-3.36-2.82-7.25-4.9-10.77-7.47c-2.35-5.79,1.4-11.46,4.32-16.23
			c3-4.11,5.97-8.26,9.88-11.58c5.62-0.12,10.65,2.71,14.95,6.07c0.77,0.02,2.31,0.07,3.08,0.09c2.24-1.58,4.19-3.51,6.44-5.08
			c3.2-2.38,7.07-3.65,10.13-6.25c-0.05-0.81-0.14-2.43-0.18-3.25c-1.44-2.27-0.29-5.16-1.77-7.39c-0.09-1.68-0.13-3.35-0.15-5.02
			c5.91-5.63,14.28-6.14,21.69-8.5C629.03,426.57,628.61,425.44,628.4,424.87z M629.99,481.2c-10.67,2.84-19.32,11.16-23.58,21.23
			c-3.96,9.46-3.89,20.52,0.33,29.89c4.76,11.09,15.24,19.54,27.17,21.59c7.25,1.49,14.82,0.26,21.62-2.51
			c-6.98,0.03-13.96,0-20.94,0.02c0-2.79,0.09-5.6-0.28-8.37c-1.65-2.07-3.77-5.29-6.66-2.8c-0.68,0.06-2.03,0.18-2.7,0.24
			c-1.87-1.24-3.64-2.61-5.28-4.11c0.51-4.48-2.09-8.41-2.26-12.79c-3.06,0.48-4.45-1.85-3.93-4.6c0.94-0.88,1.89-1.75,2.84-2.63
			c0.29-1.15,0.62-2.28,0.99-3.4c0.18-0.44,0.56-1.31,0.75-1.75c0.58-1.93,0.52-3.97,0.69-5.95c0.81-2.13,1.1-4.44,2.21-6.46
			c1.96-4.44,6.07-7.33,9.99-9.92c1.07-0.31,2.13-0.65,3.18-1.03c0.48-0.12,1.42-0.37,1.9-0.49c4.64-1.59,9.77-0.5,14.62-0.67
			c1.29,0.82,2.83,0.86,4.3,1.12c2.48,1.28,5.03,2.41,7.48,3.76c2.97,1.59,4.5,4.76,6.23,7.49c0.52,1.39,1.03,2.81,1.69,4.17
			c0.1,3.87,0.08,7.75,0.02,11.63c-2.25,4.83-5.43,9.19-7.43,14.12c-0.43,1.71-0.8,3.43-1.44,5.09c-0.03,4.37-0.71,8.93,1.12,13.07
			c10.65-7.96,16.48-21.84,14.55-35.01c-1.42-11.95-8.98-23-19.71-28.47C649.07,479.33,639,478.18,629.99,481.2z M635.01,492.96
			c-4.98,1.09-8.48,5.46-10.24,10.01c-0.3,1.89-0.39,3.81-0.55,5.73c-0.61,1.31-0.83,2.75-1.15,4.17c-0.35,1.07-0.65,2.16-0.91,3.26
			c-0.63,1.01-1.25,2.03-1.89,3.05c0.71,0.28,2.12,0.84,2.82,1.12c0.51,1.99,0.01,4.24,1.22,6.05c0.14,2.74,0.11,5.49,0.1,8.24
			c2.87,0.01,5.75,0,8.63-0.01c2.26,2.32,4.74,4.48,6.39,7.31c-0.03,1.56-0.03,3.13-0.03,4.7c5.79-0.03,11.58,0.04,17.36-0.04
			c-0.19-1.65-0.14-3.38-1.08-4.82c-0.13-2.48-0.13-4.97,0-7.44c0.77-1.65,1.06-3.46,1.6-5.19c1.38-5.04,4.55-9.21,7.51-13.4
			c0.4-2.56,1-5.1,1.22-7.68c0.03-5.01-3.13-9.44-6.92-12.43c-2.94-1.71-6.2-2.74-9.32-4.03
			C644.83,491.05,639.78,491.59,635.01,492.96z"/>
	</g>
	<path class="st3" d="M630.78,498.25c5.04-3.55,11.1-5.41,17.3-4.95c3.47,1.28,7.19,2.22,10.1,4.66c1.34,1.26,2.63,2.58,3.83,3.99
		c2.68,3.45,1.08,8.06,1.48,12.07c-0.99,1.33-1.97,2.68-2.9,4.05c-2.63,0.63-4,3.15-5.9,4.81c-1.65-1.35-3.11-2.88-4.51-4.47
		c-0.65,0-1.96,0.01-2.61,0.01c0.01-0.52,0.01-1.55,0.02-2.07c-0.86,0.05-1.71,0.1-2.55,0.15c-1.66,1.75-2.79,0.24-3.87-1.03
		c-1.34,0.66-2.79,0.98-4.24,1.16c-0.39-0.55-1.15-1.66-1.53-2.21c-1.2-0.01-2.4-0.02-3.59-0.01c-1.37-1.45-2.8-2.84-4.23-4.2
		c0-1.78,0-3.55,0.01-5.31c0.94-1.32,1.89-2.63,2.91-3.89C630.57,500.32,630.71,498.94,630.78,498.25z"/>
</g>
</svg>
