<?xml version="1.0" encoding="UTF-8"?>
<svg xmlns="http://www.w3.org/2000/svg" xmlns:xlink="http://www.w3.org/1999/xlink" width="50px" height="50px" viewBox="0 0 50 50" version="1.1">
<g id="surface1">
<path style=" stroke:none;fill-rule:nonzero;fill:rgb(100%,29.019608%,29.019608%);fill-opacity:1;" d="M 13.472656 7.003906 C 14.082031 6.78125 14.726562 6.679688 15.367188 6.601562 C 16.003906 6.621094 16.648438 6.550781 17.277344 6.664062 C 18.324219 6.796875 19.328125 7.1875 20.214844 7.753906 C 21.183594 8.34375 22.171875 8.902344 23.132812 9.507812 C 23.503906 9.765625 23.925781 9.9375 24.289062 10.199219 C 24.828125 10.496094 25.316406 10.882812 25.886719 11.117188 C 26.464844 11.441406 27.089844 11.6875 27.621094 12.09375 C 28.003906 12.414062 28.425781 12.691406 28.738281 13.085938 C 28.929688 13.324219 29.148438 13.542969 29.335938 13.785156 L 29.382812 13.691406 C 29.390625 13.769531 29.347656 13.863281 29.414062 13.921875 C 29.890625 14.515625 30.191406 15.226562 30.441406 15.9375 C 30.53125 16.132812 30.578125 16.34375 30.621094 16.554688 C 30.65625 16.683594 30.683594 16.8125 30.726562 16.941406 C 30.734375 18.632812 30.738281 20.328125 30.726562 22.019531 C 29.007812 22.03125 27.28125 22.027344 25.5625 22.023438 C 25.632812 21.671875 25.609375 21.308594 25.519531 20.964844 C 25.433594 20.878906 25.351562 20.785156 25.25 20.722656 C 24.90625 20.710938 24.570312 20.660156 24.230469 20.617188 C 24.082031 20.476562 24.046875 20.265625 23.980469 20.082031 C 23.824219 19.527344 23.609375 18.984375 23.363281 18.464844 C 23.167969 18.175781 23.027344 17.863281 22.957031 17.523438 C 23.097656 17.222656 23.375 17.03125 23.585938 16.785156 C 23.679688 16.550781 23.613281 16.257812 23.4375 16.070312 C 23.140625 15.792969 22.867188 15.496094 22.5625 15.230469 C 22.339844 15.054688 22.203125 14.777344 21.941406 14.648438 C 21.792969 14.628906 21.644531 14.632812 21.496094 14.644531 C 21.277344 14.859375 21.078125 15.097656 20.839844 15.296875 C 20.632812 15.3125 20.464844 15.160156 20.289062 15.074219 C 19.746094 14.796875 19.175781 14.585938 18.605469 14.382812 C 18.273438 14.269531 17.914062 14.203125 17.617188 14.003906 C 17.613281 13.710938 17.628906 13.414062 17.613281 13.117188 C 17.527344 12.890625 17.367188 12.628906 17.097656 12.617188 C 16.480469 12.5625 15.855469 12.609375 15.234375 12.59375 C 15.023438 12.566406 14.8125 12.671875 14.722656 12.867188 C 14.484375 13.183594 14.59375 13.589844 14.574219 13.953125 C 14.378906 14.085938 14.179688 14.21875 13.949219 14.277344 C 13.332031 14.46875 12.726562 14.691406 12.164062 15.007812 C 11.941406 15.144531 11.691406 15.226562 11.453125 15.316406 C 11.214844 15.144531 11.03125 14.917969 10.820312 14.714844 C 10.613281 14.511719 10.253906 14.527344 10.054688 14.734375 C 9.601562 15.164062 9.171875 15.613281 8.726562 16.050781 C 8.597656 16.160156 8.558594 16.328125 8.5 16.476562 C 8.617188 16.878906 9.015625 17.089844 9.222656 17.429688 C 9.234375 17.769531 9 18.0625 8.867188 18.363281 C 8.550781 18.929688 8.363281 19.550781 8.160156 20.164062 C 8.101562 20.355469 7.988281 20.558594 7.792969 20.632812 C 7.488281 20.675781 7.164062 20.582031 6.871094 20.6875 C 6.414062 20.976562 6.539062 21.574219 6.523438 22.03125 C 6.554688 22.449219 6.414062 22.9375 6.722656 23.28125 C 7.058594 23.578125 7.523438 23.46875 7.929688 23.488281 C 8.0625 23.675781 8.171875 23.878906 8.222656 24.101562 C 8.339844 24.621094 8.574219 25.101562 8.785156 25.585938 C 8.976562 25.910156 9.234375 26.226562 9.242188 26.625 C 8.949219 26.90625 8.625 27.175781 8.488281 27.570312 C 8.640625 28.066406 9.121094 28.320312 9.394531 28.734375 C 9.648438 29.011719 9.90625 29.296875 10.238281 29.476562 C 10.386719 29.5 10.535156 29.488281 10.6875 29.492188 C 10.871094 29.296875 11.039062 29.082031 11.25 28.917969 C 11.472656 28.742188 11.773438 28.859375 11.996094 28.976562 C 12.492188 29.277344 13.027344 29.515625 13.582031 29.6875 C 13.917969 29.804688 14.269531 29.882812 14.570312 30.074219 C 14.597656 30.453125 14.488281 30.871094 14.699219 31.214844 C 14.800781 31.324219 14.949219 31.398438 15.097656 31.402344 C 15.425781 31.410156 15.753906 31.398438 16.082031 31.410156 C 16.09375 33.402344 16.089844 35.394531 16.082031 37.390625 C 15.628906 37.382812 15.164062 37.4375 14.714844 37.339844 C 13.613281 37.179688 12.578125 36.714844 11.640625 36.121094 C 10.605469 35.570312 9.617188 34.929688 8.597656 34.347656 C 7.890625 33.90625 7.160156 33.511719 6.460938 33.058594 C 5.484375 32.4375 4.410156 31.9375 3.570312 31.125 C 2.996094 30.632812 2.539062 30.015625 2.195312 29.347656 C 1.8125 28.605469 1.484375 27.816406 1.390625 26.980469 C 1.390625 23.660156 1.390625 20.335938 1.390625 17.011719 C 1.460938 16.4375 1.671875 15.890625 1.898438 15.359375 C 2.101562 14.8125 2.429688 14.320312 2.746094 13.832031 C 3.125 13.375 3.539062 12.945312 3.988281 12.554688 C 4.519531 12.074219 5.175781 11.761719 5.78125 11.382812 C 7.125 10.660156 8.410156 9.828125 9.742188 9.078125 C 10.332031 8.699219 10.945312 8.359375 11.542969 7.988281 C 12.148438 7.589844 12.785156 7.234375 13.472656 7.003906 Z M 13.472656 7.003906 "/>
<path style=" stroke:none;fill-rule:nonzero;fill:rgb(100%,29.019608%,29.019608%);fill-opacity:1;" d="M 15.496094 15.039062 C 15.835938 14.863281 16.25 14.875 16.605469 14.992188 C 16.976562 15.136719 17.292969 15.496094 17.289062 15.90625 C 17.300781 15.925781 17.320312 15.964844 17.328125 15.980469 C 17.261719 16.3125 17.199219 16.65625 17.023438 16.953125 C 16.9375 17.097656 16.84375 17.238281 16.761719 17.386719 C 17.105469 17.453125 17.464844 17.371094 17.804688 17.492188 C 17.929688 17.609375 18.078125 17.746094 18.070312 17.9375 C 18.078125 18.160156 18.113281 18.394531 18.03125 18.613281 C 17.953125 18.839844 17.859375 19.066406 17.820312 19.304688 C 17.550781 19.984375 17.449219 20.8125 16.820312 21.273438 C 16.6875 21.398438 17.011719 21.371094 17.070312 21.382812 C 17.304688 21.5625 17.390625 21.902344 17.292969 22.171875 C 17.289062 22.210938 17.273438 22.289062 17.269531 22.328125 C 17.25 22.367188 17.210938 22.449219 17.191406 22.488281 C 17.125 22.503906 16.996094 22.53125 16.929688 22.546875 C 17.171875 22.605469 17.285156 22.832031 17.414062 23.015625 C 17.550781 23.230469 17.640625 23.472656 17.636719 23.726562 C 17.34375 23.777344 17.046875 23.789062 16.753906 23.742188 C 16.578125 23.546875 16.5 23.300781 16.414062 23.0625 C 16.484375 22.921875 16.570312 22.792969 16.683594 22.683594 C 16.742188 22.667969 16.859375 22.636719 16.917969 22.621094 C 16.839844 22.605469 16.765625 22.589844 16.6875 22.585938 C 16.433594 22.746094 16.351562 23.070312 16.089844 23.21875 C 15.910156 23.0625 15.800781 22.851562 15.660156 22.664062 C 15.59375 22.542969 15.445312 22.609375 15.339844 22.605469 C 15.441406 22.65625 15.542969 22.707031 15.644531 22.753906 C 15.863281 23.066406 15.667969 23.449219 15.507812 23.742188 C 15.226562 23.78125 14.941406 23.796875 14.664062 23.734375 C 14.535156 23.679688 14.578125 23.527344 14.625 23.433594 C 14.785156 23.101562 14.949219 22.726562 15.296875 22.554688 C 15.179688 22.507812 15.03125 22.488281 14.988281 22.351562 C 14.867188 22.070312 14.855469 21.691406 15.085938 21.464844 C 15.199219 21.382812 15.347656 21.382812 15.476562 21.339844 C 15.207031 21.164062 14.980469 20.925781 14.855469 20.625 C 14.710938 20.261719 14.570312 19.890625 14.457031 19.511719 C 14.320312 18.949219 14.253906 18.375 14.179688 17.800781 C 14.167969 17.667969 14.308594 17.59375 14.382812 17.5 C 14.464844 17.476562 14.546875 17.453125 14.632812 17.425781 C 14.9375 17.417969 15.242188 17.421875 15.550781 17.417969 C 15.207031 17.085938 15.007812 16.628906 14.917969 16.167969 C 14.839844 15.710938 15.117188 15.269531 15.496094 15.039062 Z M 15.726562 15.585938 C 15.546875 15.679688 15.433594 15.851562 15.296875 15.992188 C 15.839844 16.074219 16.394531 16.019531 16.941406 16.03125 C 16.75 15.578125 16.164062 15.414062 15.726562 15.585938 Z M 15.726562 15.585938 "/>
<path style=" stroke:none;fill-rule:nonzero;fill:rgb(100%,29.019608%,29.019608%);fill-opacity:1;" d="M 13.664062 17.804688 C 13.8125 17.8125 13.957031 17.828125 14.105469 17.859375 C 14.121094 18.109375 14.167969 18.355469 14.1875 18.605469 C 14.214844 18.863281 14.335938 19.109375 14.308594 19.375 C 14.117188 19.386719 13.898438 19.433594 13.730469 19.308594 C 13.589844 19.203125 13.53125 19.023438 13.429688 18.882812 C 13.351562 18.507812 13.390625 18.089844 13.664062 17.804688 Z M 13.664062 17.804688 "/>
<path style=" stroke:none;fill-rule:nonzero;fill:rgb(100%,29.019608%,29.019608%);fill-opacity:1;" d="M 18.195312 17.8125 C 18.371094 17.800781 18.546875 17.828125 18.707031 17.902344 C 18.820312 18.210938 18.804688 18.539062 18.789062 18.863281 C 18.757812 19.007812 18.703125 19.152344 18.609375 19.269531 C 18.421875 19.433594 18.160156 19.382812 17.933594 19.386719 C 17.917969 19.03125 18.140625 18.726562 18.1875 18.382812 C 18.21875 18.195312 18.191406 18.003906 18.195312 17.8125 Z M 18.195312 17.8125 "/>
<path style=" stroke:none;fill-rule:nonzero;fill:rgb(100%,29.019608%,29.019608%);fill-opacity:1;" d="M 18.9375 18.785156 C 19.574219 19.132812 20.148438 19.609375 20.542969 20.222656 C 20.679688 20.464844 20.6875 20.746094 20.742188 21.011719 C 20.824219 21.066406 20.9375 21.058594 21.03125 21.03125 C 21.019531 21 21.003906 20.933594 20.996094 20.902344 C 20.988281 20.824219 20.984375 20.746094 20.976562 20.667969 C 21.054688 20.589844 21.128906 20.511719 21.207031 20.433594 C 21.355469 20.441406 21.449219 20.519531 21.453125 20.675781 C 21.332031 20.808594 21.179688 20.929688 21.101562 21.09375 C 21.167969 21.1875 21.175781 21.355469 21.308594 21.382812 C 21.367188 21.351562 21.421875 21.304688 21.464844 21.25 C 21.589844 21.246094 21.710938 21.246094 21.832031 21.246094 C 21.875 21.289062 21.917969 21.328125 21.957031 21.371094 C 21.957031 21.417969 21.957031 21.511719 21.960938 21.558594 C 21.898438 21.613281 21.835938 21.667969 21.773438 21.722656 C 21.738281 21.699219 21.675781 21.652344 21.640625 21.628906 C 21.566406 21.628906 21.492188 21.632812 21.417969 21.632812 C 21.394531 21.597656 21.34375 21.519531 21.320312 21.484375 L 21.273438 21.460938 C 21.230469 21.527344 21.152344 21.65625 21.109375 21.722656 C 21.191406 21.75 21.277344 21.773438 21.363281 21.789062 C 21.453125 21.894531 21.542969 22.003906 21.636719 22.109375 C 21.640625 22.238281 21.640625 22.484375 21.441406 22.421875 C 21.269531 22.292969 21.058594 22.101562 21.105469 21.863281 C 20.953125 21.902344 20.796875 21.898438 20.640625 21.894531 C 20.460938 21.679688 20.488281 21.363281 20.625 21.128906 C 20.273438 21.269531 19.808594 21.324219 19.5 21.058594 C 18.988281 20.65625 18.707031 20.03125 18.59375 19.402344 C 18.753906 19.222656 18.84375 19 18.9375 18.785156 Z M 18.9375 18.785156 "/>
<path style=" stroke:none;fill-rule:nonzero;fill:rgb(100%,29.019608%,29.019608%);fill-opacity:1;" d="M 12.160156 19.609375 C 12.519531 19.320312 12.859375 18.996094 13.28125 18.808594 C 13.421875 19.011719 13.539062 19.230469 13.65625 19.449219 C 13.519531 19.898438 13.398438 20.367188 13.085938 20.734375 C 12.910156 20.996094 12.632812 21.15625 12.359375 21.300781 C 12.105469 21.316406 11.832031 21.3125 11.636719 21.117188 C 11.761719 21.367188 11.726562 21.632812 11.609375 21.875 C 11.566406 21.894531 11.476562 21.941406 11.433594 21.960938 C 11.289062 21.882812 11.140625 21.804688 11.042969 21.671875 C 11.011719 21.535156 10.992188 21.390625 11.003906 21.246094 C 11.085938 21.070312 11.300781 21.023438 11.460938 20.941406 C 11.476562 20.417969 11.753906 19.929688 12.160156 19.609375 Z M 12.160156 19.609375 "/>
<path style=" stroke:none;fill-rule:nonzero;fill:rgb(100%,29.019608%,29.019608%);fill-opacity:1;" d="M 10.890625 20.359375 C 11.066406 20.492188 11.210938 20.660156 11.304688 20.863281 C 11.226562 20.925781 11.148438 20.984375 11.070312 21.046875 C 10.964844 20.914062 10.820312 20.800781 10.761719 20.640625 C 10.722656 20.527344 10.839844 20.445312 10.890625 20.359375 Z M 10.890625 20.359375 "/>
<path style=" stroke:none;fill-rule:nonzero;fill:rgb(100%,29.019608%,29.019608%);fill-opacity:1;" d="M 10.285156 21.304688 C 10.445312 21.261719 10.609375 21.242188 10.777344 21.242188 C 10.816406 21.304688 10.851562 21.371094 10.890625 21.433594 C 10.859375 21.496094 10.828125 21.554688 10.800781 21.617188 C 10.671875 21.636719 10.542969 21.664062 10.417969 21.695312 C 10.253906 21.617188 10.246094 21.464844 10.285156 21.304688 Z M 10.285156 21.304688 "/>
<path style=" stroke:none;fill-rule:nonzero;fill:rgb(100%,29.019608%,29.019608%);fill-opacity:1;" d="M 10.671875 22.023438 C 10.773438 21.90625 10.898438 21.691406 11.078125 21.816406 C 11.074219 21.902344 11.074219 21.984375 11.074219 22.070312 C 10.96875 22.1875 10.875 22.3125 10.785156 22.441406 C 10.71875 22.410156 10.625 22.410156 10.59375 22.332031 C 10.496094 22.226562 10.609375 22.113281 10.671875 22.023438 Z M 10.671875 22.023438 "/>
<path style=" stroke:none;fill-rule:nonzero;fill:rgb(100%,29.019608%,29.019608%);fill-opacity:1;" d="M 11.214844 22.6875 C 11.242188 22.457031 11.148438 22.183594 11.335938 22.003906 C 11.40625 22.058594 11.472656 22.117188 11.539062 22.175781 C 11.515625 22.378906 11.613281 22.652344 11.410156 22.789062 C 11.335938 22.785156 11.277344 22.730469 11.214844 22.6875 Z M 11.214844 22.6875 "/>
<path style=" stroke:none;fill-rule:nonzero;fill:rgb(100%,29.019608%,29.019608%);fill-opacity:1;" d="M 20.671875 22.191406 C 20.726562 22.082031 20.851562 22.050781 20.957031 22.003906 C 21.070312 22.226562 21.042969 22.484375 21.015625 22.722656 C 20.96875 22.753906 20.917969 22.789062 20.871094 22.824219 C 20.796875 22.757812 20.722656 22.695312 20.652344 22.628906 C 20.65625 22.484375 20.640625 22.335938 20.671875 22.191406 Z M 20.671875 22.191406 "/>
<path style=" stroke:none;fill-rule:nonzero;fill:rgb(100%,29.019608%,29.019608%);fill-opacity:1;" d="M 16.625 24.960938 C 16.648438 24.601562 16.535156 24.171875 16.835938 23.890625 C 17.011719 23.804688 17.226562 23.871094 17.417969 23.871094 C 17.496094 23.910156 17.574219 23.945312 17.65625 23.984375 C 17.949219 24.34375 17.730469 24.816406 17.734375 25.230469 C 17.71875 25.253906 17.695312 25.300781 17.683594 25.324219 C 17.660156 25.429688 17.707031 25.570312 17.605469 25.644531 C 17.359375 25.667969 17.101562 25.621094 16.867188 25.722656 C 16.84375 25.707031 16.796875 25.675781 16.773438 25.660156 C 16.710938 25.464844 16.683594 25.265625 16.691406 25.058594 C 16.675781 25.035156 16.640625 24.984375 16.625 24.960938 Z M 16.625 24.960938 "/>
<path style=" stroke:none;fill-rule:nonzero;fill:rgb(100%,29.019608%,29.019608%);fill-opacity:1;" d="M 14.453125 24.128906 C 14.589844 24.027344 14.714844 23.898438 14.886719 23.855469 C 15.058594 23.851562 15.230469 23.855469 15.402344 23.878906 C 15.539062 23.984375 15.558594 24.175781 15.625 24.324219 C 15.625 24.535156 15.625 24.746094 15.628906 24.957031 C 15.617188 24.984375 15.585938 25.03125 15.574219 25.058594 C 15.53125 25.289062 15.496094 25.523438 15.421875 25.75 C 15.324219 25.707031 15.222656 25.65625 15.125 25.605469 C 14.949219 25.613281 14.773438 25.65625 14.605469 25.707031 C 14.570312 25.445312 14.5 25.191406 14.511719 24.929688 C 14.496094 24.902344 14.464844 24.855469 14.449219 24.828125 C 14.453125 24.59375 14.453125 24.363281 14.453125 24.128906 Z M 14.453125 24.128906 "/>
<path style=" stroke:none;fill-rule:nonzero;fill:rgb(100%,29.019608%,29.019608%);fill-opacity:1;" d="M 16.859375 25.820312 C 17.109375 25.851562 17.363281 25.871094 17.617188 25.863281 C 17.644531 25.84375 17.699219 25.808594 17.726562 25.789062 C 17.894531 25.847656 18.078125 25.863281 18.230469 25.964844 C 18.46875 26.101562 18.621094 26.335938 18.742188 26.574219 C 18.71875 26.660156 18.742188 26.839844 18.609375 26.835938 C 18.058594 26.847656 17.503906 26.835938 16.949219 26.839844 C 16.835938 26.851562 16.734375 26.808594 16.636719 26.765625 C 16.632812 26.628906 16.628906 26.496094 16.625 26.363281 C 16.640625 26.335938 16.667969 26.289062 16.679688 26.261719 C 16.679688 26.09375 16.757812 25.949219 16.859375 25.820312 Z M 16.859375 25.820312 "/>
<path style=" stroke:none;fill-rule:nonzero;fill:rgb(100%,29.019608%,29.019608%);fill-opacity:1;" d="M 13.894531 26.039062 C 14.042969 25.894531 14.246094 25.847656 14.4375 25.800781 C 14.75 25.890625 15.074219 25.832031 15.390625 25.824219 C 15.539062 26.066406 15.605469 26.34375 15.640625 26.621094 C 15.566406 26.695312 15.492188 26.765625 15.417969 26.839844 C 14.785156 26.839844 14.152344 26.84375 13.515625 26.839844 C 13.332031 26.503906 13.65625 26.226562 13.894531 26.039062 Z M 13.894531 26.039062 "/>
<path style=" stroke:none;fill-rule:nonzero;fill:rgb(100%,83.921569%,40%);fill-opacity:1;" d="M 35.65625 13.886719 C 36.167969 13.683594 36.703125 13.464844 37.265625 13.53125 C 37.402344 13.734375 37.566406 13.921875 37.652344 14.15625 C 37.777344 14.277344 37.882812 14.425781 38.011719 14.542969 C 38.332031 14.625 38.664062 14.570312 38.988281 14.585938 C 39.542969 14.570312 40.101562 14.617188 40.65625 14.550781 C 40.796875 14.226562 41.074219 14 41.320312 13.757812 C 41.457031 13.636719 41.636719 13.597656 41.8125 13.566406 C 42.175781 13.589844 42.550781 13.609375 42.882812 13.777344 C 43.164062 13.902344 43.390625 14.117188 43.660156 14.261719 C 44.035156 14.453125 44.394531 14.699219 44.664062 15.027344 C 44.84375 15.234375 44.777344 15.527344 44.777344 15.777344 C 44.648438 16.023438 44.464844 16.246094 44.394531 16.523438 C 44.675781 17 44.988281 17.457031 45.230469 17.953125 C 45.417969 18.289062 45.667969 18.585938 45.953125 18.839844 C 46.300781 18.867188 46.65625 18.847656 47 18.90625 C 47.421875 19.003906 47.433594 19.503906 47.511719 19.847656 C 47.542969 20.464844 47.515625 21.085938 47.527344 21.703125 C 47.523438 22.070312 47.429688 22.480469 47.136719 22.730469 C 46.867188 22.789062 46.578125 22.707031 46.308594 22.785156 C 46.042969 22.878906 45.804688 23.050781 45.640625 23.28125 C 45.464844 24 45.003906 24.597656 44.542969 25.160156 C 44.488281 25.527344 44.691406 25.859375 44.890625 26.148438 C 44.945312 26.375 44.902344 26.613281 44.914062 26.84375 C 44.707031 27.101562 44.464844 27.328125 44.171875 27.488281 C 43.625 27.90625 42.945312 28.101562 42.367188 28.460938 C 42.355469 28.484375 42.332031 28.527344 42.320312 28.546875 C 42.277344 28.464844 42.242188 28.375 42.203125 28.292969 C 42.003906 28.277344 41.804688 28.261719 41.609375 28.25 C 41.554688 28.171875 41.503906 28.097656 41.453125 28.027344 C 41.300781 27.828125 41.121094 27.648438 40.945312 27.476562 C 40.5625 27.398438 40.167969 27.449219 39.78125 27.433594 C 39.246094 27.449219 38.710938 27.402344 38.183594 27.464844 C 37.96875 27.640625 37.792969 27.855469 37.6875 28.117188 C 37.628906 28.234375 37.570312 28.421875 37.410156 28.417969 C 37.066406 28.425781 36.714844 28.453125 36.378906 28.34375 C 35.511719 28.070312 34.769531 27.53125 34.042969 27 C 34.042969 26.753906 34.042969 26.511719 34.046875 26.269531 C 34.15625 26.066406 34.257812 25.855469 34.445312 25.707031 C 34.445312 25.476562 34.425781 25.222656 34.246094 25.054688 C 33.910156 24.710938 33.652344 24.300781 33.457031 23.863281 C 33.269531 23.589844 33.160156 23.246094 32.875 23.050781 C 32.539062 23.003906 32.207031 22.984375 31.871094 22.976562 C 31.675781 22.9375 31.445312 22.839844 31.414062 22.617188 C 31.382812 22.3125 31.429688 22.007812 31.386719 21.707031 C 31.3125 21.332031 31.335938 20.949219 31.347656 20.570312 C 31.433594 20.179688 31.394531 19.78125 31.40625 19.382812 C 31.484375 19.300781 31.558594 19.21875 31.632812 19.136719 C 31.996094 19.128906 32.363281 19.160156 32.722656 19.101562 C 32.902344 18.976562 33.160156 18.90625 33.234375 18.679688 C 33.421875 18.1875 33.632812 17.695312 33.957031 17.273438 C 34.121094 17.019531 34.382812 16.78125 34.308594 16.445312 C 34.195312 16.234375 34.078125 16.019531 33.914062 15.835938 C 33.925781 15.617188 33.867188 15.394531 33.914062 15.179688 C 34.003906 15.03125 34.136719 14.917969 34.253906 14.792969 C 34.660156 14.402344 35.175781 14.167969 35.65625 13.886719 Z M 38.925781 17.234375 C 37.796875 17.40625 36.773438 18.128906 36.238281 19.132812 C 35.785156 19.972656 35.640625 20.992188 35.921875 21.90625 C 36.175781 22.84375 36.824219 23.667969 37.667969 24.144531 C 38.40625 24.566406 39.296875 24.734375 40.136719 24.582031 C 41.136719 24.417969 42.058594 23.820312 42.613281 22.96875 C 43.132812 22.191406 43.351562 21.207031 43.183594 20.285156 C 43.023438 19.3125 42.453125 18.414062 41.640625 17.855469 C 40.859375 17.308594 39.863281 17.070312 38.925781 17.234375 Z M 38.925781 17.234375 "/>
<path style=" stroke:none;fill-rule:nonzero;fill:rgb(100%,83.921569%,40%);fill-opacity:1;" d="M 38.179688 18.90625 C 38.378906 18.839844 38.578125 18.742188 38.796875 18.777344 C 39.1875 18.859375 39.484375 19.171875 39.660156 19.519531 C 39.695312 19.710938 39.675781 19.917969 39.53125 20.066406 C 39.648438 20.183594 39.769531 20.300781 39.886719 20.417969 C 40.132812 20.109375 40.453125 19.871094 40.703125 19.566406 C 40.824219 19.253906 41.105469 19.054688 41.335938 18.824219 C 41.53125 18.773438 41.632812 19.050781 41.777344 19.148438 C 41.566406 19.402344 41.34375 19.667969 41.042969 19.8125 C 40.703125 20.054688 40.476562 20.429688 40.117188 20.648438 C 40.394531 20.960938 40.757812 21.179688 41.03125 21.503906 C 41.269531 21.792969 41.554688 22.035156 41.808594 22.316406 C 41.949219 22.46875 41.914062 22.6875 41.867188 22.871094 C 41.730469 22.964844 41.597656 23.101562 41.421875 23.082031 C 41.179688 23.089844 41.023438 22.863281 40.894531 22.691406 C 40.59375 22.242188 40.125 21.949219 39.785156 21.535156 C 39.714844 21.433594 39.546875 21.414062 39.46875 21.519531 C 39.304688 21.65625 39.359375 21.914062 39.1875 22.039062 C 38.859375 22.347656 38.554688 22.675781 38.230469 22.988281 C 38.125 23.113281 37.929688 23.113281 37.808594 23.019531 C 37.664062 22.917969 37.566406 22.769531 37.445312 22.640625 C 37.394531 22.410156 37.578125 22.242188 37.738281 22.109375 C 38.03125 21.875 38.289062 21.601562 38.539062 21.324219 C 38.625 21.214844 38.777344 21.226562 38.882812 21.144531 C 38.980469 21.078125 39.074219 21.003906 39.175781 20.9375 C 38.964844 20.785156 38.699219 20.757812 38.464844 20.867188 C 37.929688 20.804688 37.539062 20.222656 37.664062 19.703125 C 37.933594 19.742188 38.121094 19.996094 38.386719 20.027344 C 38.675781 19.980469 38.722656 19.675781 38.703125 19.433594 C 38.539062 19.234375 38.164062 19.222656 38.179688 18.90625 Z M 38.179688 18.90625 "/>
<path style=" stroke:none;fill-rule:nonzero;fill:rgb(16.078431%,71.372549%,78.823529%);fill-opacity:1;" d="M 24.933594 23.179688 C 25.335938 23.144531 25.734375 23.050781 26.136719 23.097656 C 26.40625 23.101562 26.605469 23.324219 26.722656 23.542969 C 26.878906 23.964844 26.828125 24.480469 27.140625 24.835938 C 27.328125 24.964844 27.570312 24.921875 27.78125 24.972656 C 28.3125 25.03125 28.835938 25.140625 29.359375 25.265625 C 29.777344 25.148438 29.960938 24.699219 30.132812 24.34375 C 30.214844 24.144531 30.40625 24.03125 30.597656 23.960938 C 30.988281 23.875 31.363281 24.054688 31.699219 24.234375 C 32.28125 24.582031 32.878906 24.925781 33.367188 25.40625 C 33.566406 25.574219 33.523438 25.871094 33.476562 26.097656 C 33.265625 26.449219 33.011719 26.78125 32.777344 27.125 C 32.777344 27.222656 32.78125 27.320312 32.78125 27.417969 C 32.976562 27.671875 33.1875 27.917969 33.367188 28.1875 C 33.480469 28.355469 33.546875 28.546875 33.683594 28.699219 C 33.847656 28.878906 34.011719 29.058594 34.183594 29.226562 C 34.742188 29.195312 35.296875 29.117188 35.863281 29.125 C 35.992188 29.230469 36.136719 29.339844 36.203125 29.503906 C 36.433594 30.019531 36.609375 30.566406 36.699219 31.125 C 36.671875 31.460938 36.777344 31.792969 36.738281 32.132812 C 36.636719 32.308594 36.503906 32.476562 36.308594 32.546875 C 35.9375 32.664062 35.554688 32.710938 35.1875 32.816406 C 34.820312 32.964844 34.808594 33.425781 34.835938 33.761719 C 34.820312 33.777344 34.785156 33.816406 34.769531 33.832031 C 34.746094 34.257812 34.605469 34.667969 34.496094 35.078125 C 34.664062 35.59375 35.257812 35.683594 35.605469 36.03125 C 35.851562 36.222656 35.953125 36.582031 35.824219 36.867188 C 35.527344 37.679688 35.019531 38.414062 34.390625 39.007812 C 34.210938 39.203125 33.90625 39.226562 33.671875 39.132812 C 33.324219 38.945312 33.007812 38.703125 32.648438 38.535156 C 32.40625 38.449219 32.179688 38.570312 32.011719 38.738281 C 31.65625 39.027344 31.28125 39.292969 30.875 39.511719 C 30.65625 39.613281 30.457031 39.777344 30.417969 40.027344 C 30.5 40.355469 30.550781 40.695312 30.636719 41.023438 C 30.71875 41.289062 30.601562 41.625 30.34375 41.75 C 29.558594 42.175781 28.660156 42.394531 27.765625 42.378906 C 27.488281 42.382812 27.21875 42.222656 27.082031 41.984375 C 26.9375 41.605469 26.910156 41.179688 26.730469 40.8125 C 26.574219 40.519531 26.210938 40.539062 25.921875 40.503906 C 25.40625 40.46875 24.917969 40.289062 24.414062 40.207031 C 24.265625 40.308594 24.097656 40.402344 24.007812 40.5625 C 23.851562 40.820312 23.667969 41.054688 23.484375 41.292969 C 23.351562 41.476562 23.105469 41.550781 22.886719 41.519531 C 22.382812 41.421875 21.949219 41.136719 21.515625 40.882812 C 21.058594 40.585938 20.675781 40.199219 20.25 39.863281 C 20.261719 39.722656 20.226562 39.566406 20.308594 39.441406 C 20.507812 39.074219 20.746094 38.730469 20.9375 38.359375 C 21.015625 38.222656 20.917969 38.070312 20.882812 37.9375 C 20.734375 37.660156 20.484375 37.457031 20.324219 37.1875 C 20.179688 36.941406 20.007812 36.714844 19.855469 36.476562 C 19.746094 36.328125 19.585938 36.175781 19.386719 36.214844 C 18.988281 36.273438 18.601562 36.40625 18.203125 36.472656 C 18.015625 36.464844 17.859375 36.351562 17.703125 36.257812 C 17.40625 35.828125 17.253906 35.324219 17.136719 34.824219 C 17.082031 34.632812 17.105469 34.429688 17.03125 34.246094 C 17.015625 33.933594 17.027344 33.617188 17.023438 33.300781 C 17.3125 32.710938 18.058594 32.828125 18.574219 32.621094 C 18.785156 32.5625 18.882812 32.355469 18.929688 32.160156 C 18.84375 31.582031 19.09375 31.03125 19.195312 30.476562 C 19.261719 30.226562 19.046875 30.066406 18.894531 29.914062 C 18.761719 29.796875 18.597656 29.722656 18.4375 29.652344 C 18.21875 29.507812 18.015625 29.339844 17.871094 29.121094 C 17.882812 28.964844 17.863281 28.804688 17.910156 28.652344 C 18.0625 28.203125 18.257812 27.769531 18.519531 27.375 C 18.808594 27.082031 19.019531 26.722656 19.320312 26.445312 C 19.527344 26.257812 19.820312 26.335938 20.070312 26.324219 C 20.261719 26.4375 20.492188 26.476562 20.65625 26.636719 C 20.824219 26.789062 21.023438 26.917969 21.253906 26.949219 C 21.554688 26.949219 21.761719 26.703125 21.960938 26.511719 C 22.269531 26.25 22.625 26.054688 22.988281 25.886719 C 23.121094 25.824219 23.210938 25.714844 23.300781 25.605469 C 23.285156 25.285156 23.199219 24.972656 23.144531 24.660156 C 23.128906 24.636719 23.101562 24.589844 23.089844 24.566406 C 23.066406 24.289062 23.109375 24.015625 23.234375 23.769531 C 23.773438 23.496094 24.355469 23.335938 24.933594 23.179688 Z M 26.027344 28.339844 C 24.339844 28.632812 22.902344 30 22.519531 31.667969 C 22.226562 32.835938 22.445312 34.121094 23.101562 35.128906 C 23.714844 36.078125 24.695312 36.792969 25.804688 37.042969 C 26.84375 37.3125 27.976562 37.152344 28.925781 36.65625 C 29.917969 36.132812 30.710938 35.222656 31.0625 34.152344 C 31.328125 33.359375 31.386719 32.484375 31.175781 31.671875 C 30.921875 30.574219 30.21875 29.601562 29.28125 28.988281 C 28.332031 28.367188 27.140625 28.121094 26.027344 28.339844 Z M 26.027344 28.339844 "/>
<path style=" stroke:none;fill-rule:nonzero;fill:rgb(16.078431%,71.372549%,78.823529%);fill-opacity:1;" d="M 25.085938 29.640625 C 25.28125 29.519531 25.515625 29.554688 25.730469 29.550781 C 26.109375 29.527344 26.4375 29.832031 26.554688 30.175781 C 26.722656 30.496094 26.597656 30.878906 26.410156 31.164062 C 26.304688 31.355469 25.980469 31.398438 25.988281 31.65625 C 25.996094 32.121094 25.953125 32.589844 26.023438 33.050781 C 26.140625 33.007812 26.257812 32.957031 26.359375 32.878906 C 26.839844 32.683594 27.347656 32.566406 27.828125 32.371094 C 27.992188 32.28125 28.144531 32.164062 28.277344 32.03125 C 28.425781 31.878906 28.433594 31.652344 28.480469 31.453125 C 28.238281 31.355469 28.121094 31.117188 27.988281 30.910156 C 27.835938 30.628906 27.894531 30.28125 28.039062 30.011719 C 28.140625 29.871094 28.277344 29.761719 28.394531 29.636719 C 28.691406 29.53125 29.019531 29.523438 29.328125 29.578125 C 29.671875 29.785156 29.980469 30.121094 30.011719 30.539062 C 30.023438 30.9375 29.726562 31.285156 29.378906 31.453125 C 29.285156 31.789062 29.261719 32.175781 29.011719 32.441406 C 28.75 32.714844 28.484375 33 28.128906 33.144531 C 27.648438 33.378906 27.082031 33.386719 26.632812 33.691406 C 26.300781 33.859375 26.046875 34.179688 26.027344 34.5625 C 26.277344 34.714844 26.429688 34.976562 26.578125 35.222656 C 26.578125 35.414062 26.59375 35.609375 26.570312 35.800781 C 26.449219 36.105469 26.199219 36.324219 25.914062 36.46875 C 25.410156 36.597656 24.839844 36.367188 24.609375 35.890625 C 24.613281 35.625 24.589844 35.359375 24.621094 35.09375 C 24.757812 34.890625 24.957031 34.734375 25.132812 34.570312 C 25.136719 33.53125 25.132812 32.488281 25.132812 31.449219 C 24.949219 31.335938 24.742188 31.21875 24.679688 30.996094 C 24.507812 30.53125 24.589844 29.867188 25.085938 29.640625 Z M 25.417969 30.003906 C 25.289062 30.128906 25.121094 30.238281 25.074219 30.417969 C 25.03125 30.65625 25.132812 30.957031 25.390625 31.015625 C 25.816406 31.234375 26.304688 30.660156 26.070312 30.261719 C 25.960938 30.011719 25.648438 30.007812 25.417969 30.003906 Z M 28.414062 30.398438 C 28.316406 30.589844 28.472656 30.777344 28.546875 30.953125 C 28.710938 31.035156 28.914062 31.109375 29.09375 31.019531 C 29.265625 30.980469 29.375 30.832031 29.496094 30.71875 C 29.511719 30.464844 29.414062 30.179688 29.160156 30.074219 C 28.882812 29.894531 28.488281 30.085938 28.414062 30.398438 Z M 25.066406 35.632812 C 25.117188 36.105469 25.859375 36.15625 26.046875 35.75 C 26.191406 35.558594 26.089844 35.328125 26.023438 35.128906 C 25.871094 35.0625 25.710938 34.996094 25.539062 34.988281 C 25.230469 35.007812 24.984375 35.324219 25.066406 35.632812 Z M 25.066406 35.632812 "/>
<path style=" stroke:none;fill-rule:nonzero;fill:rgb(90.196078%,90.196078%,91.764706%);fill-opacity:1;" d="M 41.453125 28.027344 C 41.503906 28.097656 41.554688 28.171875 41.609375 28.25 C 41.804688 28.261719 42.003906 28.277344 42.203125 28.292969 C 42.242188 28.375 42.277344 28.464844 42.320312 28.546875 C 42.332031 28.570312 42.355469 28.617188 42.367188 28.640625 C 42.367188 28.734375 42.386719 28.828125 42.429688 28.914062 C 42.433594 28.976562 42.441406 29.042969 42.445312 29.113281 C 42.523438 29.25 42.625 29.363281 42.796875 29.347656 C 43.15625 29.417969 43.515625 29.488281 43.863281 29.597656 C 44.179688 29.425781 44.265625 29.042969 44.511719 28.796875 C 44.640625 28.800781 44.773438 28.800781 44.90625 28.804688 C 44.976562 28.835938 45.054688 28.863281 45.128906 28.886719 C 45.15625 28.910156 45.207031 28.953125 45.230469 28.976562 C 45.675781 29.144531 46.007812 29.492188 46.332031 29.824219 C 46.332031 29.925781 46.339844 30.035156 46.324219 30.136719 C 46.179688 30.390625 46.003906 30.621094 45.867188 30.878906 C 46.085938 31.183594 46.347656 31.460938 46.484375 31.816406 C 46.554688 31.886719 46.625 31.960938 46.695312 32.03125 C 46.804688 32.03125 46.914062 32.027344 47.027344 32.023438 C 47.164062 31.949219 47.339844 31.988281 47.472656 31.890625 C 47.621094 31.941406 47.773438 32.011719 47.871094 32.148438 C 48.019531 32.402344 48.070312 32.699219 48.171875 32.972656 C 48.179688 33.304688 48.191406 33.636719 48.171875 33.964844 C 48.105469 34.042969 48.03125 34.117188 47.960938 34.191406 C 47.890625 34.195312 47.824219 34.199219 47.757812 34.203125 C 47.632812 34.269531 47.488281 34.261719 47.355469 34.285156 C 47.246094 34.332031 47.148438 34.398438 47.058594 34.472656 C 47.058594 34.605469 47.058594 34.738281 47.050781 34.871094 C 46.984375 34.972656 46.992188 35.09375 46.976562 35.207031 C 46.945312 35.292969 46.921875 35.382812 46.894531 35.472656 C 46.867188 35.570312 46.859375 35.667969 46.851562 35.769531 C 47.074219 35.933594 47.304688 36.09375 47.546875 36.230469 C 47.582031 36.296875 47.613281 36.359375 47.652344 36.421875 C 47.652344 36.527344 47.652344 36.628906 47.652344 36.730469 C 47.523438 36.949219 47.429688 37.1875 47.285156 37.394531 C 47.117188 37.6875 46.882812 37.925781 46.640625 38.15625 C 46.511719 38.148438 46.375 38.171875 46.246094 38.128906 C 46.113281 38.042969 46.003906 37.925781 45.882812 37.832031 C 45.757812 37.730469 45.585938 37.761719 45.4375 37.738281 C 45.277344 37.859375 45.136719 38.003906 44.957031 38.101562 C 44.753906 38.234375 44.511719 38.328125 44.351562 38.523438 C 44.347656 38.859375 44.484375 39.183594 44.496094 39.523438 C 44.238281 39.792969 43.867188 39.878906 43.523438 39.972656 C 43.144531 40.082031 42.75 40.035156 42.367188 39.988281 C 42.242188 39.648438 42.195312 39.28125 42.050781 38.945312 C 41.644531 38.828125 41.214844 38.824219 40.816406 38.679688 C 40.71875 38.628906 40.632812 38.707031 40.550781 38.746094 C 40.386719 39 40.195312 39.230469 40.039062 39.484375 C 39.394531 39.371094 38.777344 39.054688 38.347656 38.558594 C 38.25 38.453125 38.21875 38.3125 38.21875 38.171875 L 38.269531 38.164062 C 38.378906 37.914062 38.539062 37.691406 38.699219 37.46875 C 38.6875 37.402344 38.679688 37.339844 38.667969 37.277344 C 38.574219 37.167969 38.480469 37.058594 38.402344 36.9375 C 38.355469 36.871094 38.3125 36.804688 38.269531 36.738281 C 38.144531 36.535156 38.027344 36.328125 37.859375 36.160156 C 37.789062 36.179688 37.714844 36.199219 37.648438 36.226562 C 37.53125 36.242188 37.410156 36.234375 37.3125 36.300781 C 37.191406 36.304688 37.070312 36.308594 36.949219 36.308594 C 36.882812 36.269531 36.816406 36.234375 36.75 36.199219 C 36.679688 36.046875 36.609375 35.894531 36.53125 35.75 C 36.515625 35.65625 36.503906 35.566406 36.484375 35.476562 C 36.453125 35.386719 36.425781 35.292969 36.390625 35.210938 C 36.398438 34.894531 36.316406 34.570312 36.429688 34.265625 C 36.660156 34.050781 36.984375 34.074219 37.253906 33.945312 C 37.296875 33.945312 37.386719 33.945312 37.429688 33.941406 C 37.503906 33.792969 37.511719 33.628906 37.519531 33.464844 C 37.578125 33.363281 37.570312 33.238281 37.585938 33.128906 C 37.628906 33.015625 37.65625 32.894531 37.699219 32.78125 C 37.703125 32.664062 37.703125 32.550781 37.707031 32.4375 C 37.484375 32.25 37.226562 32.113281 36.996094 31.945312 C 36.839844 31.5625 37.085938 31.1875 37.28125 30.875 C 37.476562 30.601562 37.675781 30.328125 37.933594 30.109375 C 38.304688 30.101562 38.632812 30.289062 38.917969 30.511719 C 38.96875 30.511719 39.070312 30.515625 39.121094 30.515625 C 39.269531 30.414062 39.398438 30.285156 39.546875 30.179688 C 39.757812 30.023438 40.011719 29.941406 40.214844 29.769531 C 40.210938 29.714844 40.207031 29.609375 40.203125 29.554688 C 40.109375 29.40625 40.183594 29.214844 40.085938 29.066406 C 40.078125 28.957031 40.078125 28.847656 40.074219 28.734375 C 40.464844 28.363281 41.019531 28.332031 41.507812 28.175781 C 41.492188 28.136719 41.464844 28.0625 41.453125 28.027344 Z M 41.554688 31.742188 C 40.851562 31.929688 40.28125 32.476562 40 33.140625 C 39.738281 33.765625 39.742188 34.496094 40.023438 35.113281 C 40.335938 35.84375 41.027344 36.402344 41.816406 36.539062 C 42.292969 36.636719 42.792969 36.554688 43.242188 36.371094 C 42.78125 36.375 42.320312 36.371094 41.859375 36.375 C 41.859375 36.1875 41.867188 36.003906 41.839844 35.820312 C 41.730469 35.683594 41.59375 35.472656 41.402344 35.636719 C 41.355469 35.640625 41.269531 35.648438 41.222656 35.652344 C 41.101562 35.570312 40.984375 35.480469 40.875 35.382812 C 40.910156 35.085938 40.738281 34.828125 40.726562 34.539062 C 40.523438 34.570312 40.433594 34.414062 40.46875 34.234375 C 40.527344 34.175781 40.589844 34.117188 40.65625 34.0625 C 40.671875 33.984375 40.695312 33.910156 40.71875 33.835938 C 40.730469 33.808594 40.757812 33.75 40.769531 33.722656 C 40.808594 33.59375 40.804688 33.460938 40.816406 33.328125 C 40.867188 33.1875 40.886719 33.035156 40.960938 32.902344 C 41.089844 32.609375 41.359375 32.417969 41.621094 32.246094 C 41.691406 32.226562 41.761719 32.207031 41.828125 32.179688 C 41.859375 32.171875 41.921875 32.15625 41.953125 32.148438 C 42.261719 32.042969 42.597656 32.113281 42.917969 32.105469 C 43.003906 32.15625 43.105469 32.160156 43.203125 32.175781 C 43.367188 32.261719 43.535156 32.335938 43.695312 32.425781 C 43.890625 32.53125 43.992188 32.738281 44.105469 32.917969 C 44.140625 33.011719 44.175781 33.105469 44.21875 33.195312 C 44.226562 33.449219 44.222656 33.707031 44.21875 33.960938 C 44.070312 34.28125 43.863281 34.566406 43.730469 34.894531 C 43.703125 35.007812 43.675781 35.121094 43.632812 35.230469 C 43.632812 35.515625 43.585938 35.816406 43.707031 36.089844 C 44.410156 35.566406 44.796875 34.652344 44.667969 33.78125 C 44.574219 32.992188 44.074219 32.265625 43.367188 31.902344 C 42.816406 31.617188 42.152344 31.542969 41.554688 31.742188 Z M 41.886719 32.515625 C 41.558594 32.589844 41.328125 32.878906 41.210938 33.175781 C 41.191406 33.300781 41.1875 33.429688 41.175781 33.554688 C 41.136719 33.640625 41.121094 33.738281 41.097656 33.832031 C 41.078125 33.902344 41.058594 33.972656 41.039062 34.046875 C 40.996094 34.113281 40.957031 34.179688 40.914062 34.246094 C 40.960938 34.265625 41.054688 34.300781 41.101562 34.320312 C 41.132812 34.453125 41.101562 34.601562 41.179688 34.71875 C 41.191406 34.902344 41.1875 35.082031 41.1875 35.261719 C 41.378906 35.265625 41.566406 35.261719 41.757812 35.261719 C 41.90625 35.414062 42.070312 35.558594 42.179688 35.746094 C 42.175781 35.847656 42.175781 35.953125 42.175781 36.054688 C 42.558594 36.054688 42.941406 36.058594 43.320312 36.050781 C 43.308594 35.941406 43.3125 35.828125 43.25 35.734375 C 43.242188 35.570312 43.242188 35.40625 43.25 35.242188 C 43.300781 35.132812 43.320312 35.015625 43.355469 34.902344 C 43.445312 34.570312 43.65625 34.292969 43.851562 34.015625 C 43.878906 33.847656 43.917969 33.679688 43.933594 33.511719 C 43.933594 33.179688 43.726562 32.886719 43.476562 32.691406 C 43.28125 32.578125 43.066406 32.511719 42.859375 32.425781 C 42.535156 32.390625 42.203125 32.425781 41.886719 32.515625 Z M 41.886719 32.515625 "/>
<path style=" stroke:none;fill-rule:nonzero;fill:rgb(90.196078%,90.196078%,91.764706%);fill-opacity:1;" d="M 41.609375 32.867188 C 41.941406 32.632812 42.339844 32.507812 42.75 32.539062 C 42.976562 32.625 43.222656 32.6875 43.414062 32.847656 C 43.503906 32.929688 43.589844 33.015625 43.667969 33.109375 C 43.84375 33.335938 43.738281 33.640625 43.765625 33.90625 C 43.699219 33.992188 43.636719 34.082031 43.574219 34.171875 C 43.402344 34.214844 43.3125 34.382812 43.183594 34.492188 C 43.078125 34.402344 42.980469 34.300781 42.886719 34.195312 C 42.84375 34.195312 42.757812 34.195312 42.714844 34.195312 C 42.714844 34.164062 42.714844 34.09375 42.71875 34.058594 C 42.660156 34.0625 42.605469 34.066406 42.546875 34.070312 C 42.4375 34.183594 42.363281 34.085938 42.292969 34.003906 C 42.207031 34.046875 42.109375 34.066406 42.015625 34.078125 C 41.988281 34.042969 41.9375 33.96875 41.914062 33.933594 C 41.832031 33.933594 41.753906 33.929688 41.675781 33.933594 C 41.585938 33.835938 41.492188 33.746094 41.398438 33.65625 C 41.398438 33.539062 41.398438 33.421875 41.398438 33.304688 C 41.460938 33.21875 41.523438 33.132812 41.589844 33.046875 C 41.59375 33.003906 41.605469 32.910156 41.609375 32.867188 Z M 41.609375 32.867188 "/>
</g>
</svg>
